<svg xmlns="http://www.w3.org/2000/svg" width="213.793" height="40.957" viewBox="0 0 213.793 40.957">
  <g id="amazon-pay" transform="translate(0 -206.938)" opacity="0.61">
    <g id="amazonpay-logo-rgb_clr" transform="translate(0 206.938)">
      <path id="Shape" d="M16.626,230.745a.867.867,0,0,1-.993.1,10.178,10.178,0,0,1-2.407-2.8C10.914,230.4,9.281,231.1,6.293,231.1,2.754,231.1,0,228.913,0,224.545a7.168,7.168,0,0,1,4.465-6.87c2.281-1,5.466-1.183,7.9-1.459v-.543a5.412,5.412,0,0,0-.51-3.051,2.8,2.8,0,0,0-2.359-1.09,3.205,3.205,0,0,0-3.383,2.523.882.882,0,0,1-.744.774l-4.041-.443a.745.745,0,0,1-.625-.878c.934-4.942,5.4-6.434,9.4-6.434,2.047,0,4.718.543,6.326,2.091,2.043,1.913,1.86,4.465,1.86,7.238v6.546a5.728,5.728,0,0,0,1.589,3.9.807.807,0,0,1,0,1.116c-.859.718-2.385,2.043-3.223,2.791h0ZM12.388,220.5a8.313,8.313,0,0,1-.785,4.465,3.418,3.418,0,0,1-2.914,1.913c-1.611,0-2.553-1.228-2.553-3.051,0-3.58,3.211-4.231,6.252-4.231v.9Z" transform="translate(0 -207.017)" fill="#fff" fill-rule="evenodd"/>
      <path id="Path_00000111892064443368038330000016638241374509145249_" d="M60.488,230.548h-4.2a.789.789,0,0,1-.744-.711V208.254a.8.8,0,0,1,.8-.77h3.918a.789.789,0,0,1,.744.744v2.817h.078a5.543,5.543,0,0,1,5.534-4c2.59,0,4.276,1.269,5.455,4a6.207,6.207,0,0,1,10.691-1.656c1.336,1.816,1.061,4.465,1.061,6.765v13.616a.793.793,0,0,1-.811.778h-4.2a.785.785,0,0,1-.744-.774V218.335a27.506,27.506,0,0,0-.119-4.041,2.19,2.19,0,0,0-2.471-1.861,2.791,2.791,0,0,0-2.512,1.768,13.071,13.071,0,0,0-.395,4.134v11.436a.793.793,0,0,1-.808.778H67.554a.789.789,0,0,1-.744-.774V218.336c0-2.407.372-5.954-2.605-5.954s-2.9,3.449-2.9,5.954v11.436a.793.793,0,0,1-.811.778" transform="translate(-32.348 -206.985)" fill="#fff" fill-rule="evenodd"/>
      <path id="Path_116" data-name="Path 116" d="M151.839,226.808a5.727,5.727,0,0,1-1.589-3.892v-6.549c0-2.776.2-5.325-1.86-7.238-1.612-1.548-4.283-2.091-6.326-2.091-4,0-8.466,1.488-9.4,6.434a.744.744,0,0,0,.629.882l4.075.439a.885.885,0,0,0,.744-.774,3.2,3.2,0,0,1,3.379-2.523,2.791,2.791,0,0,1,2.359,1.094,5.364,5.364,0,0,1,.514,3.048v.532c-2.438.271-5.626.454-7.9,1.455a7.143,7.143,0,0,0-4.484,6.873c0,4.365,2.754,6.549,6.292,6.549,2.977,0,4.622-.7,6.929-3.055a10.187,10.187,0,0,0,2.411,2.8.875.875,0,0,0,.993-.1h0c.837-.744,2.363-2.073,3.223-2.791C152.182,227.649,152.123,227.2,151.839,226.808Zm-8.261-1.887a3.416,3.416,0,0,1-2.91,1.909c-1.611,0-2.553-1.228-2.553-3.048,0-3.583,3.211-4.231,6.252-4.231v.908A8.326,8.326,0,0,1,143.578,224.921Z" transform="translate(-76.86 -206.996)" fill="#fff" fill-rule="evenodd"/>
      <path id="Path_117" data-name="Path 117" d="M186.977,211.8v-3.085a.744.744,0,0,1,.785-.778h13.817a.771.771,0,0,1,.8.778v2.646a4.231,4.231,0,0,1-1.038,1.939l-7.16,10.218a15.3,15.3,0,0,1,7.881,1.693,1.407,1.407,0,0,1,.744,1.2v3.3a.741.741,0,0,1-1.02.707,15.913,15.913,0,0,0-14.6.026c-.48.257-.983-.261-.983-.715v-3.145a3.72,3.72,0,0,1,.514-2.117l8.295-11.908h-7.234a.77.77,0,0,1-.8-.778" transform="translate(-108.44 -207.519)" fill="#fff" fill-rule="evenodd"/>
      <path id="Path_118" data-name="Path 118" d="M240.265,211.416c-3.1,0-3.3,4.22-3.3,6.855s-.037,8.261,3.256,8.261,3.416-4.54,3.416-7.308a19.893,19.893,0,0,0-.629-5.719A2.642,2.642,0,0,0,240.265,211.416Zm-.041-4.406c6.241,0,9.616,5.359,9.616,12.169,0,6.583-3.721,11.8-9.616,11.8-6.122,0-9.456-5.359-9.456-12.031S234.143,207.01,240.224,207.01Z" transform="translate(-134.399 -206.98)" fill="#fff" fill-rule="evenodd"/>
      <path id="Path_119" data-name="Path 119" d="M289.034,230.457h-4.19a.785.785,0,0,1-.744-.774V208.1a.793.793,0,0,1,.808-.707h3.9a.792.792,0,0,1,.744.6v3.3h.082c1.176-2.951,2.824-4.358,5.727-4.358a5.53,5.53,0,0,1,4.909,2.542c1.1,1.727,1.1,4.633,1.1,6.72v13.579a.8.8,0,0,1-.808.677h-4.227a.785.785,0,0,1-.744-.677V218.06c0-2.359.275-5.813-2.631-5.813a2.761,2.761,0,0,0-2.434,1.727,9.619,9.619,0,0,0-.666,4.093v11.614a.8.8,0,0,1-.819.774" transform="translate(-165.459 -206.938)" fill="#fff" fill-rule="evenodd"/>
      <path id="Path_120" data-name="Path 120" d="M363.491,210.965a9.837,9.837,0,0,0-5.906,2.028v12.28a9.554,9.554,0,0,0,5.816,2.117q6.081,0,6.08-8.187t-5.991-8.243v0Zm-6.215-.573a12.42,12.42,0,0,1,3.569-2.2,10.476,10.476,0,0,1,3.877-.744,9.058,9.058,0,0,1,3.837.774,7.856,7.856,0,0,1,2.906,2.292,10.68,10.68,0,0,1,1.831,3.662,16.9,16.9,0,0,1,.64,4.838,16.648,16.648,0,0,1-.685,4.934,11.235,11.235,0,0,1-1.916,3.747,8.675,8.675,0,0,1-3,2.4,8.865,8.865,0,0,1-3.918.822,9.828,9.828,0,0,1-6.829-2.6v10.33a.778.778,0,0,1-.882.882h-2.6a.778.778,0,0,1-.882-.882V208.981a.781.781,0,0,1,.882-.882h1.939a.931.931,0,0,1,1.016.882l.219,1.411Z" transform="translate(-205.71 -207.232)" fill="#fff" fill-rule="evenodd"/>
      <path id="Path_121" data-name="Path 121" d="M418.081,227.769a9.014,9.014,0,0,0,3.04-.57,11.537,11.537,0,0,0,3.04-1.675v-4.5a22.294,22.294,0,0,0-2.315-.417,18.433,18.433,0,0,0-2.356-.156q-4.986,0-4.983,3.837a3.44,3.44,0,0,0,.927,2.579A3.622,3.622,0,0,0,418.081,227.769Zm-5.158-15.786-.331.112a1.153,1.153,0,0,1-.372.067c-.372,0-.573-.264-.573-.8v-1.18a1.483,1.483,0,0,1,.179-.859,1.651,1.651,0,0,1,.7-.465,15.922,15.922,0,0,1,3.479-.971,23.231,23.231,0,0,1,4.142-.372q4.186,0,6.17,1.715t1.987,5.332v15.056a.781.781,0,0,1-.882.882h-1.9a.882.882,0,0,1-.968-.837l-.223-1.455a12.027,12.027,0,0,1-3.5,2.113,10.371,10.371,0,0,1-3.814.744A6.936,6.936,0,0,1,412,229.282a6.981,6.981,0,0,1,.431-9.917,9.288,9.288,0,0,1,6.17-1.916,23.815,23.815,0,0,1,5.552.744v-2.9a4.4,4.4,0,0,0-1.057-3.349,5.505,5.505,0,0,0-3.7-.971A22.749,22.749,0,0,0,412.923,211.983Z" transform="translate(-238.862 -207.275)" fill="#fff" fill-rule="evenodd"/>
      <path id="Path_122" data-name="Path 122" d="M472.013,235.264a10.858,10.858,0,0,1-2.757,4.365,6.1,6.1,0,0,1-4.093,1.321,9.354,9.354,0,0,1-2.512-.309,1.284,1.284,0,0,1-.707-.421,1.491,1.491,0,0,1-.22-.9v-1.146c0-.558.22-.837.662-.837a4.015,4.015,0,0,1,.662.086,6.214,6.214,0,0,0,1.187.089,3.883,3.883,0,0,0,2.6-.793,6.846,6.846,0,0,0,1.675-2.91l.837-2.233-8.492-20.992a3.359,3.359,0,0,1-.305-1.061c0-.35.2-.528.614-.528h2.646a1.59,1.59,0,0,1,.971.22,2.37,2.37,0,0,1,.525.971l6.173,17.1,5.954-17.1a2.369,2.369,0,0,1,.525-.971,1.593,1.593,0,0,1,.971-.22H481.4c.413,0,.618.179.618.528a3.392,3.392,0,0,1-.309,1.061l-9.7,24.679" transform="translate(-268.226 -208.132)" fill="#fff" fill-rule="evenodd"/>
      <path id="Path_123" data-name="Path 123" d="M110.843,273.44c-7.893,5.824-19.35,8.931-29.19,8.931A52.813,52.813,0,0,1,46,268.77c-.744-.666-.082-1.578.808-1.061a71.756,71.756,0,0,0,35.672,9.463,71.024,71.024,0,0,0,27.213-5.582c1.332-.566,2.452.878,1.146,1.86m3.282-3.747c1.012,1.291-1.116,6.62-2.073,9-.29.718.331,1.008.983.465,4.231-3.543,5.325-10.963,4.465-12.034s-8.261-1.98-12.779,1.194c-.7.487-.577,1.161.2,1.068,2.542-.305,8.205-.986,9.214.309" transform="translate(-26.605 -241.415)" fill="#f90" fill-rule="evenodd"/>
    </g>
  </g>
</svg>
